<?xml version="1.0" encoding="UTF-8"?>
<svg id="Capa_1" data-name="Capa 1" xmlns="http://www.w3.org/2000/svg" viewBox="0 0 1080 1080">
	<defs>
		<style>
			.cls-1 {
			fill: #212631;
			}

			.cls-1, .cls-2 {
			stroke-width: 0px;
			}

			.cls-2 {
			fill: #fff;
			}
		</style>
	</defs>
	<rect class="cls-2" width="1083.12" height="1083.12"/>
	<path class="cls-1" d="M540,345.19c-130.37,0-236.06,105.67-236.06,236.02s105.69,236.02,236.06,236.02,236.06-105.67,236.06-236.02-105.69-236.02-236.06-236.02ZM540,781.31c-110.51,0-200.1-89.59-200.1-200.1s89.59-200.1,200.1-200.1,200.1,89.59,200.1,200.1-89.59,200.1-200.1,200.1Z"/>
	<circle class="cls-1" cx="540" cy="581.21" r="158.26"/>
	<path class="cls-1" d="M336.95,697.86c-19.36,7.87-33.01,26.86-33.01,49.04,0,29.23,23.7,52.93,52.93,52.93,20.74,0,38.68-11.94,47.37-29.31-27.23-19.17-50.21-43.96-67.28-72.67Z"/>
	<path class="cls-1" d="M675.76,770.53c8.68,17.37,26.63,29.31,47.37,29.31,29.23,0,52.93-23.7,52.93-52.93,0-22.19-13.66-41.17-33.01-49.04-17.07,28.71-40.06,53.5-67.28,72.67Z"/>
	<path class="cls-1" d="M768.08,468.63c19.37-20.93,31.23-49.05,31.23-79.99,0-64.64-51.78-117.05-115.65-117.05-43.87,0-82.03,24.72-101.63,61.14,82.88,10,152.53,62.93,186.05,135.9Z"/>
	<path class="cls-1" d="M494.6,332.73c-19.6-36.42-57.76-61.14-101.63-61.14-63.87,0-115.65,52.4-115.65,117.05,0,30.93,11.86,59.06,31.23,79.99,33.52-72.97,103.17-125.9,186.05-135.9Z"/>
	<path class="cls-2" d="M627.88,562.02c-1.91,15.91-8.69,29.52-19.49,41.18-11.36,12.26-25.21,20.5-41.25,25.11-3.85,1.11-7.76,1.96-11.71,2.62-1.13.19-2.24.41-3.3,1.24-.07,1.2-.18,2.48-.22,3.76-.18,6.44-.33,12.87-.51,19.31-.07,2.57-.17,5.15-.33,7.72-.24,3.74-1.07,7.36-2.57,10.8-5.08,11.68-17.62,15.98-28.19,12.76-2.06-.62-3.97-1.62-5.66-3-.88-.73-1.76-1.46-2.61-2.23-7.03-6.31-14.05-12.62-21.08-18.94-.53-.48-1.06-.96-1.58-1.46-3.77-3.66-5.72-8.17-6.06-13.36-.19-2.85-.19-5.72-.14-8.58.19-12.88.45-25.76.65-38.63.2-12.59.35-25.19.55-37.78.24-15.02.42-30.05.79-45.07.18-7.58.43-15.17,1.46-22.69.21-1.55.49-3.11.91-4.62,1.98-7.19,6.4-12.36,13.15-15.49,1.55-.72,3.18-1.28,4.82-1.78,3.83-1.16,7.69-2.2,11.64-2.91,7.37-1.31,14.78-1.69,22.23-1.04,5.13.45,10.23,1.19,15.21,2.56,10.79,2.97,20.46,8.07,28.84,15.5,8.46,7.49,16.9,15.03,25.23,22.67,9.68,8.88,15.86,19.81,18.46,32.7,1.31,6.49,1.57,13.03.78,19.64ZM599.81,526.65c-1.25-10.92-5.46-20.69-12.52-29.15-6.81-8.17-15.21-14.23-24.94-18.47-8.9-3.88-18.3-5.52-27.94-5.92-6.46-.26-12.87.36-19.18,1.68-3.91.82-7.79,1.82-11.53,3.26-7.19,2.76-11.25,8.1-12.51,15.6-.45,2.67-.73,5.39-.87,8.1-.39,7.71-.79,15.43-.87,23.16-.16,16.17-.5,32.33-.77,48.5-.02,0-.04,0-.06,0-.06,5.44-.11,10.87-.2,16.31-.26,15.59-.55,31.19-.8,46.78-.05,3.15.03,6.29.04,9.44,0,1.74.31,3.42.86,5.06,1.71,5.08,5.04,8.51,10.22,10.15,1.96.62,3.94.71,5.94.63,7.57-.3,12.99-3.9,16.16-10.78,1.02-2.21,1.65-4.57,1.91-7.01.35-3.27.73-6.54.7-9.84-.02-2.43,0-4.87.07-7.3.16-5.58.35-11.15.54-16.73.02-.71.1-1.43.18-2.14.07-.6.34-1.09.97-1.26.96-.27,1.93-.54,2.9-.74,4.19-.89,8.42-1.61,12.57-2.66,15.78-4.02,29.31-11.92,40.51-23.75,5.45-5.76,9.87-12.23,13.19-19.44,4.91-10.66,6.74-21.84,5.42-33.46ZM558.95,522.09c6.14,7.61,7.06,15.98,3.3,24.92-1.17,2.78-2.87,5.26-4.81,7.56-3.26,3.87-7.13,6.99-11.58,9.38-3.78,2.04-7.73,3.67-11.95,4.58-2.51.54-4.95,1.36-7.53,1.55-.54.04-1.12-.43-1.17-.98-.08-.85-.16-1.71-.2-2.56-.26-5.85-.33-11.7-.2-17.56.25-11.14.42-22.27.62-33.41.02-1.14.04-2.28.12-3.42.03-.4.26-.79.39-1.16,5.71-2.08,11.29-1.29,16.85.37,6.48,1.93,11.9,5.48,16.14,10.74Z"/>
</svg>